<?xml version="1.0" standalone="no"?>
<!DOCTYPE svg PUBLIC "-//W3C//DTD SVG 20010904//EN"
 "http://www.w3.org/TR/2001/REC-SVG-20010904/DTD/svg10.dtd">
<svg version="1.0" xmlns="http://www.w3.org/2000/svg"
 width="772.000000pt" height="323.000000pt" viewBox="0 0 772.000000 323.000000"
 preserveAspectRatio="xMidYMid meet">

<g transform="translate(0.000000,323.000000) scale(0.100000,-0.100000)"
fill="#000000" stroke="none">
<path d="M1360 2570 c0 -8 735 -756 810 -825 6 -5 28 -27 48 -47 20 -21 41
-38 46 -38 5 0 209 200 453 445 244 245 448 445 453 445 6 0 10 -19 10 -42 0
-24 1 -429 2 -901 2 -611 0 -857 -8 -857 -6 0 -211 200 -455 445 -244 245
-448 445 -454 445 -10 0 -905 -894 -905 -904 0 -3 410 -6 911 -6 l912 0 460
460 c398 398 458 462 447 475 -7 9 -214 218 -461 465 l-447 450 -911 0 c-614
0 -911 -3 -911 -10z"/>
<path d="M883 2114 c-249 -250 -453 -458 -453 -462 0 -4 124 -131 276 -282
152 -151 356 -356 455 -454 l179 -180 0 917 c0 504 -1 917 -2 917 -2 0 -207
-205 -455 -456z"/>
<path d="M5390 2041 c0 -4 -18 -11 -39 -14 -22 -3 -50 -14 -62 -26 -13 -12
-25 -21 -28 -21 -3 0 -19 -20 -35 -45 -26 -41 -28 -52 -24 -118 4 -80 20 -111
81 -153 37 -25 172 -74 205 -74 11 0 23 -4 26 -9 3 -4 20 -11 37 -15 18 -3 43
-18 56 -33 20 -21 24 -33 19 -62 -7 -42 -54 -87 -103 -96 -52 -9 -118 4 -134
27 -8 11 -20 26 -26 34 -7 7 -13 24 -13 38 0 26 0 26 -85 26 l-85 0 0 -31 c0
-69 91 -189 143 -189 7 0 18 -5 25 -12 7 -7 52 -11 129 -11 104 0 125 3 173
25 71 32 122 82 143 138 22 59 21 98 -2 152 -21 49 -52 79 -107 103 -22 9 -46
20 -54 24 -8 4 -48 16 -87 26 -40 10 -73 22 -73 27 0 4 -11 8 -25 8 -61 0 -98
90 -57 139 21 26 78 41 132 34 41 -6 85 -44 92 -79 3 -16 14 -19 86 -22 l82
-3 0 32 c0 66 -74 156 -136 166 -19 3 -34 10 -34 14 0 5 -49 9 -110 9 -60 0
-110 -4 -110 -9z"/>
<path d="M6840 2040 c0 -5 -10 -10 -22 -10 -57 0 -198 -141 -198 -197 0 -11
-4 -23 -8 -28 -16 -18 -34 -143 -28 -192 14 -109 29 -159 65 -218 28 -47 46
-65 60 -65 6 0 11 -3 11 -8 0 -7 15 -15 93 -53 18 -8 66 -13 140 -12 93 0 120
4 158 22 52 24 119 84 119 105 0 8 4 16 9 18 5 2 11 23 13 48 l3 45 -73 3
c-76 3 -102 -6 -102 -37 -1 -20 -29 -54 -57 -70 -29 -15 -128 -14 -155 2 -30
17 -53 44 -80 96 -20 39 -23 59 -23 162 0 81 4 122 13 131 6 6 12 20 12 30 0
10 4 18 9 18 5 0 11 8 13 18 3 11 22 32 43 48 33 25 47 29 103 29 59 0 66 -2
93 -33 16 -18 29 -41 29 -52 0 -25 27 -32 110 -28 l65 3 -3 45 c-2 25 -10 52
-18 61 -8 8 -14 20 -14 25 0 5 -12 18 -27 29 -14 11 -31 25 -37 31 -6 5 -34
18 -63 27 -58 19 -253 24 -253 7z"/>
<path d="M4420 2032 c-6 -2 -10 -140 -10 -382 0 -426 -8 -390 85 -390 89 0 85
-9 85 171 0 99 4 159 10 159 6 0 79 1 163 1 l152 0 3 -152 c1 -95 7 -158 14
-166 8 -10 32 -13 82 -11 l71 3 0 385 0 384 -25 -1 c-14 0 -51 -1 -82 -2 l-58
-1 0 -149 c0 -83 -3 -151 -7 -153 -5 -2 -79 -2 -165 0 l-158 3 0 149 0 150
-37 1 c-21 0 -55 1 -76 2 -20 1 -42 1 -47 -1z"/>
<path d="M6047 2032 l-147 -3 2 -382 3 -382 165 -3 c165 -3 252 7 315 35 42
19 69 36 78 50 4 7 14 18 21 26 30 29 36 176 9 196 -5 3 -13 15 -19 26 -5 11
-33 32 -61 46 -38 20 -49 29 -40 38 6 6 15 11 21 11 5 0 27 18 48 41 36 39 38
44 38 107 0 48 -5 75 -18 95 -23 34 -58 67 -72 67 -5 0 -10 4 -10 9 0 19 -123
27 -333 23z m165 -108 c27 -4 58 -17 74 -31 23 -20 28 -31 28 -72 0 -78 -37
-101 -165 -101 l-79 0 0 105 0 105 49 0 c26 0 69 -3 93 -6z m64 -326 c41 -15
59 -48 58 -110 -1 -52 -12 -67 -71 -94 -47 -20 -189 -19 -197 2 -8 21 -8 199
1 207 11 12 175 8 209 -5z"/>
</g>
</svg>
