<?xml version="1.0" standalone="no"?>
<!DOCTYPE svg PUBLIC "-//W3C//DTD SVG 20010904//EN"
 "http://www.w3.org/TR/2001/REC-SVG-20010904/DTD/svg10.dtd">
<svg version="1.0" xmlns="http://www.w3.org/2000/svg"
 width="736.000000pt" height="552.000000pt" viewBox="0 0 736.000000 552.000000"
 preserveAspectRatio="xMidYMid meet">

<g transform="translate(0.000000,552.000000) scale(0.100000,-0.100000)"
fill="#000000" stroke="none">
<path d="M1493 3661 c-63 -21 -115 -60 -154 -113 -48 -67 -396 -764 -535
-1073 l-59 -130 0 -110 c0 -102 2 -115 29 -170 36 -72 106 -144 172 -178 179
-90 376 -40 581 147 l63 58 75 -69 c137 -127 250 -178 390 -177 108 1 177 28
255 101 81 74 120 156 127 263 4 46 1 98 -6 125 -24 96 -495 1067 -578 1193
-86 130 -223 181 -360 133z m159 -113 c80 -24 107 -64 313 -483 239 -483 341
-707 356 -775 29 -134 -54 -277 -185 -320 -23 -7 -67 -11 -110 -8 -88 6 -163
42 -261 127 -105 91 -104 83 -33 182 144 199 199 395 151 535 -25 73 -110 154
-187 178 -162 51 -342 -27 -396 -172 -54 -143 -5 -320 148 -542 l65 -94 -64
-59 c-128 -118 -210 -159 -320 -159 -140 0 -240 82 -269 220 -9 38 -9 66 -1
105 15 70 113 280 354 767 160 322 210 414 244 447 58 58 118 74 195 51z m24
-677 c23 -10 54 -36 70 -57 27 -35 29 -44 29 -128 0 -85 -3 -97 -38 -171 -36
-76 -135 -235 -147 -235 -10 0 -108 153 -139 216 -41 83 -54 142 -49 218 3 51
10 71 32 101 35 45 96 75 156 75 25 0 64 -9 86 -19z"/>
<path d="M3675 3326 c-66 -29 -91 -95 -60 -160 57 -119 240 -65 222 65 -6 47
-29 76 -74 95 -39 17 -50 17 -88 0z"/>
<path d="M4410 2825 l0 -516 83 3 c76 3 82 5 85 25 l3 22 37 -24 c53 -34 115
-48 183 -40 288 34 417 387 224 613 -95 110 -299 146 -407 71 -14 -11 -29 -19
-32 -19 -3 0 -6 86 -6 190 l0 190 -85 0 -85 0 0 -515z m385 24 c87 -24 145
-99 145 -189 0 -147 -151 -242 -286 -181 -66 30 -74 49 -74 177 0 62 3 119 6
128 7 18 62 54 102 66 38 12 61 11 107 -1z"/>
<path d="M5920 2825 l0 -516 83 3 c76 3 82 5 85 25 l3 23 37 -25 c151 -103
401 -6 472 183 18 47 21 74 18 152 -4 112 -31 183 -96 248 -105 105 -289 134
-394 61 -14 -11 -29 -19 -32 -19 -3 0 -6 86 -6 190 l0 190 -85 0 -85 0 0 -515z
m429 5 c114 -58 134 -233 36 -319 -77 -67 -201 -66 -272 1 -22 20 -23 30 -23
145 0 139 4 147 83 184 51 24 117 20 176 -11z"/>
<path d="M3059 3004 c-201 -61 -304 -304 -214 -502 84 -183 317 -266 464 -166
l36 24 5 -22 c5 -21 12 -23 88 -26 l82 -3 0 346 0 345 -85 0 c-78 0 -85 -2
-85 -20 0 -25 -5 -25 -38 -2 -62 44 -164 54 -253 26z m238 -180 c24 -14 45
-35 48 -47 3 -12 4 -73 3 -136 l-3 -114 -37 -30 c-68 -55 -182 -48 -253 15
-93 81 -81 245 22 309 70 44 147 44 220 3z"/>
<path d="M4154 2990 c-32 -16 -60 -30 -61 -30 -2 0 -3 9 -3 20 0 18 -7 20 -85
20 l-85 0 0 -345 0 -345 90 0 90 0 0 244 0 245 26 20 c41 32 91 44 156 37 l59
-6 -2 73 c-1 39 -6 78 -12 85 -19 24 -109 14 -173 -18z"/>
<path d="M5458 3010 c-15 -4 -43 -18 -62 -29 l-34 -22 -7 21 c-6 18 -15 20
-86 20 l-79 0 0 -345 0 -345 90 0 90 0 0 244 0 245 26 20 c62 49 166 53 211 9
36 -37 42 -82 43 -310 l0 -208 86 0 85 0 -3 268 c-3 256 -4 269 -26 310 -27
50 -101 107 -159 121 -48 13 -136 13 -175 1z"/>
<path d="M3630 2655 l0 -345 90 0 90 0 0 345 0 345 -90 0 -90 0 0 -345z"/>
</g>
</svg>
