<?xml version="1.0" standalone="no"?>
<!DOCTYPE svg PUBLIC "-//W3C//DTD SVG 20010904//EN"
 "http://www.w3.org/TR/2001/REC-SVG-20010904/DTD/svg10.dtd">
<svg version="1.0" xmlns="http://www.w3.org/2000/svg"
 width="1920.000000pt" height="1005.000000pt" viewBox="0 0 1920.000000 1005.000000"
 preserveAspectRatio="xMidYMid meet">

<g transform="translate(0.000000,1005.000000) scale(0.100000,-0.100000)"
fill="#000000" stroke="none">
<path d="M6080 5949 c-99 -15 -251 -71 -340 -125 -222 -134 -382 -358 -435
-610 -20 -92 -19 -285 1 -382 17 -82 76 -237 90 -237 5 0 144 90 309 200 165
111 361 236 435 279 74 43 137 79 138 81 2 2 -10 24 -28 50 -19 28 -107 106
-232 206 l-200 161 28 19 28 18 316 -162 317 -161 184 90 c101 50 212 104 247
119 34 15 62 31 62 35 0 5 -21 35 -46 69 -119 158 -319 287 -525 336 -82 19
-265 27 -349 14z"/>
<path d="M12616 5679 c-52 -41 -69 -104 -42 -157 45 -86 145 -101 212 -31 25
26 29 38 29 85 0 51 -3 58 -37 90 -32 29 -45 34 -87 34 -34 0 -56 -6 -75 -21z"/>
<path d="M12220 5460 l0 -220 -44 34 c-75 57 -126 71 -256 71 -104 0 -121 -3
-172 -27 -153 -72 -243 -219 -255 -418 -13 -215 83 -404 242 -479 148 -69 337
-49 448 49 l37 32 0 -51 0 -51 90 0 90 0 0 630 c0 347 1 633 3 638 1 4 -40 8
-90 10 l-93 3 0 -221z m-130 -309 c25 -13 62 -39 83 -59 l37 -36 0 -186 0
-186 -42 -41 c-61 -59 -120 -87 -196 -91 -111 -7 -205 47 -260 152 -25 46 -27
61 -27 161 0 96 3 116 24 155 40 77 97 127 171 151 46 15 162 4 210 -20z"/>
<path d="M7620 5025 l0 -625 370 0 370 0 0 90 0 90 -265 0 -265 0 0 185 0 185
245 0 245 0 0 90 0 90 -245 0 -245 0 0 170 0 170 265 0 265 0 0 90 0 90 -370
0 -370 0 0 -625z"/>
<path d="M6988 5411 c-90 -63 -362 -246 -380 -257 -15 -8 -19 -48 -32 -304
-23 -428 -22 -417 -57 -435 -19 -10 -29 -12 -29 -4 0 6 -16 117 -35 247 -28
184 -41 250 -62 295 -15 31 -28 57 -29 57 -1 0 -58 -32 -126 -71 -67 -39 -276
-148 -463 -241 -187 -93 -342 -171 -344 -173 -7 -7 88 -122 150 -181 81 -77
140 -116 244 -165 140 -66 217 -82 390 -83 177 -1 264 18 410 89 241 117 413
320 491 582 36 120 44 310 19 433 -17 84 -69 235 -84 245 -5 2 -33 -13 -63
-34z"/>
<path d="M9864 5350 c-68 -10 -133 -40 -183 -85 l-41 -37 0 51 0 51 -92 0 -93
0 2 -637 3 -638 90 -3 90 -3 0 221 c0 121 2 220 5 220 3 0 16 -10 28 -21 12
-12 51 -36 87 -53 61 -29 72 -31 175 -31 103 0 114 2 178 32 161 76 256 244
257 450 0 96 -15 163 -55 248 -60 126 -175 213 -311 235 -65 11 -66 11 -140 0z
m164 -196 c104 -50 156 -155 150 -303 -2 -73 -8 -97 -33 -146 -56 -109 -172
-168 -288 -147 -70 13 -130 42 -174 85 l-33 31 0 188 0 188 40 40 c97 97 219
120 338 64z"/>
<path d="M10830 5346 c-86 -18 -150 -54 -221 -125 -102 -103 -138 -195 -139
-357 0 -148 43 -259 139 -354 91 -90 192 -129 333 -130 145 0 261 41 360 130
l53 48 -49 53 c-27 30 -53 58 -57 63 -5 5 -25 -6 -47 -26 -21 -19 -65 -48 -98
-64 -52 -25 -70 -29 -149 -29 -81 0 -95 3 -144 30 -74 41 -127 108 -146 187
l-7 28 363 2 364 3 3 51 c4 68 -22 185 -55 254 -35 72 -133 169 -203 202 -100
47 -194 58 -300 34z m216 -184 c52 -27 98 -74 124 -128 36 -79 52 -74 -246
-74 l-265 0 6 23 c24 77 104 164 179 191 54 21 150 15 202 -12z"/>
<path d="M13217 5326 c-85 -35 -135 -73 -184 -139 -63 -86 -93 -190 -93 -321
0 -166 46 -283 149 -378 87 -81 147 -103 286 -103 100 0 115 3 165 27 30 15
70 41 88 58 18 16 35 30 38 30 2 0 4 -22 4 -50 l0 -50 90 0 90 0 0 465 0 465
-90 0 -90 0 0 -45 0 -45 -49 35 c-74 54 -148 75 -255 75 -73 0 -103 -5 -149
-24z m299 -167 c32 -12 74 -39 100 -63 l44 -43 0 -179 0 -180 -34 -40 c-75
-88 -207 -125 -314 -90 -122 41 -204 188 -188 337 22 213 199 330 392 258z"/>
<path d="M8493 5283 c19 -26 91 -126 161 -221 69 -96 126 -177 126 -181 0 -4
-76 -112 -169 -241 l-170 -235 107 -3 c58 -1 111 -1 117 2 6 2 63 76 125 165
63 89 117 158 121 154 3 -5 57 -79 118 -165 l112 -158 115 0 115 0 -23 33
c-12 17 -89 124 -170 236 -82 112 -148 206 -148 210 0 3 69 101 154 217 84
117 156 217 160 223 5 8 -25 11 -106 11 l-114 0 -104 -150 c-58 -82 -108 -148
-113 -147 -4 1 -54 67 -110 147 l-103 145 -118 3 -118 3 35 -48z"/>
<path d="M12597 4868 l2 -463 96 -3 95 -3 0 466 0 465 -97 0 -98 0 2 -462z"/>
<path d="M13947 4512 c-58 -64 33 -151 91 -89 12 13 22 33 22 45 0 52 -79 82
-113 44z m74 -2 c29 -16 25 -65 -6 -86 -23 -15 -27 -15 -50 0 -29 19 -32 51
-8 78 18 20 36 23 64 8z"/>
<path d="M13970 4463 c0 -27 3 -34 9 -24 8 12 13 12 24 3 12 -11 14 -7 13 20
-1 26 -6 34 -24 36 -19 3 -22 -1 -22 -35z m30 17 c0 -5 -4 -10 -10 -10 -5 0
-10 5 -10 10 0 6 5 10 10 10 6 0 10 -4 10 -10z"/>
</g>
</svg>
