<?xml version="1.0" standalone="no"?>
<!DOCTYPE svg PUBLIC "-//W3C//DTD SVG 20010904//EN"
 "http://www.w3.org/TR/2001/REC-SVG-20010904/DTD/svg10.dtd">
<svg version="1.0" xmlns="http://www.w3.org/2000/svg"
 width="2560.000000pt" height="1635.000000pt" viewBox="0 0 2560.000000 1635.000000"
 preserveAspectRatio="xMidYMid meet">

<g transform="translate(0.000000,1635.000000) scale(0.100000,-0.100000)"
fill="#000000" stroke="none">
<path d="M0 8175 l0 -8175 12800 0 12800 0 0 8175 0 8175 -12800 0 -12800 0 0
-8175z m25290 0 l0 -7865 -12490 0 -12490 0 0 7865 0 7865 12490 0 12490 0 0
-7865z"/>
<path d="M1240 13185 l0 -1675 11525 0 11525 0 0 1675 0 1675 -11525 0 -11525
0 0 -1675z"/>
<path d="M14435 10689 c-571 -36 -1038 -243 -1426 -629 -352 -351 -533 -737
-532 -1140 0 -272 92 -514 287 -756 155 -193 335 -330 791 -603 299 -180 418
-265 522 -374 130 -137 186 -261 187 -412 1 -107 -17 -167 -76 -256 -103 -154
-347 -286 -622 -336 -126 -23 -394 -23 -546 1 -376 57 -746 207 -1050 424 -46
34 -86 60 -88 58 -6 -7 -302 -888 -301 -899 1 -31 230 -190 389 -271 366 -186
783 -267 1295 -252 816 23 1390 201 1831 568 572 476 785 1293 482 1846 -111
202 -293 366 -673 607 -552 350 -723 484 -839 659 -156 234 -149 512 16 678
153 152 349 225 629 235 179 6 299 -5 508 -48 318 -66 540 -162 780 -336 14
-10 43 32 236 339 121 193 230 368 243 389 l22 37 -67 45 c-360 238 -920 389
-1583 427 -193 11 -239 11 -415 -1z"/>
<path d="M20412 10659 c-220 -37 -382 -260 -345 -476 41 -234 258 -394 484
-355 182 31 318 167 350 351 40 224 -121 445 -351 481 -36 5 -69 9 -75 9 -5
-1 -34 -5 -63 -10z m225 -89 c276 -128 279 -517 5 -652 -61 -30 -75 -33 -157
-33 -102 1 -157 20 -230 80 -89 72 -144 205 -131 315 29 248 288 395 513 290z"/>
<path d="M20330 10245 l0 -235 30 0 30 0 0 111 0 110 52 -3 52 -3 63 -100 c34
-55 64 -104 65 -108 2 -5 18 -7 36 -5 l32 3 -65 100 c-35 55 -65 103 -65 106
0 4 18 9 39 13 63 10 93 42 99 107 3 45 0 59 -19 83 -37 46 -74 56 -219 56
l-130 0 0 -235z m292 168 c14 -15 22 -35 22 -58 0 -23 -8 -43 -22 -58 -20 -19
-35 -22 -127 -25 l-105 -4 0 87 0 87 105 -4 c92 -3 107 -6 127 -25z"/>
<path d="M4840 10475 c0 -46 3 -55 18 -55 9 0 60 -5 112 -10 266 -28 500 -140
625 -298 92 -115 136 -239 155 -437 6 -60 37 -1005 70 -2100 33 -1094 62
-2050 66 -2123 l6 -132 696 2 697 3 1601 2600 1600 2600 -585 3 c-322 1 -588
-1 -592 -5 -4 -5 -465 -798 -1024 -1763 -559 -965 -1021 -1759 -1026 -1765 -5
-5 -9 7 -9 30 0 22 -25 814 -55 1760 -30 946 -55 1726 -55 1733 0 9 -237 12
-1150 12 l-1150 0 0 -55z"/>
<path d="M10086 7943 c-450 -1424 -821 -2596 -824 -2605 -4 -17 35 -18 726
-18 l731 0 65 203 c35 111 396 1250 801 2532 405 1282 747 2363 760 2403 l24
72 -733 0 -732 0 -818 -2587z"/>
<path d="M16814 7963 c-852 -1411 -1559 -2584 -1572 -2605 l-23 -38 591 2 591
3 332 603 331 602 798 0 797 0 5 -32 c3 -18 24 -267 46 -553 22 -286 43 -544
46 -572 l6 -53 689 0 c649 0 689 1 689 18 1 9 -99 1181 -222 2605 l-222 2587
-666 0 -666 0 -1550 -2567z m1721 147 c40 -492 71 -898 68 -902 -2 -5 -265 -8
-585 -8 -535 0 -580 1 -574 17 6 16 934 1706 985 1793 24 42 26 43 30 20 2
-14 36 -428 76 -920z"/>
</g>
</svg>
