<?xml version="1.0" standalone="no"?>
<!DOCTYPE svg PUBLIC "-//W3C//DTD SVG 20010904//EN"
 "http://www.w3.org/TR/2001/REC-SVG-20010904/DTD/svg10.dtd">
<svg version="1.0" xmlns="http://www.w3.org/2000/svg"
 width="900.000000pt" height="326.000000pt" viewBox="0 0 900.000000 326.000000"
 preserveAspectRatio="xMidYMid meet">

<g transform="translate(0.000000,326.000000) scale(0.100000,-0.100000)"
fill="#000000" stroke="none">
<path d="M6605 3094 c-583 -29 -988 -65 -1587 -139 -754 -94 -1667 -248 -2385
-402 -13 -3 -23 -12 -23 -20 0 -11 7 -14 23 -10 123 31 895 143 1277 186 692
78 1096 104 1620 105 490 0 785 -25 1065 -91 563 -132 721 -412 452 -797 l-44
-63 53 -47 c66 -58 112 -123 139 -197 11 -31 24 -57 28 -59 11 -3 210 134 377
259 375 280 631 546 701 729 110 286 -157 459 -811 527 -138 15 -725 27 -885
19z"/>
<path d="M1035 1873 c-214 -32 -386 -113 -501 -234 -97 -103 -138 -205 -138
-339 0 -73 4 -92 28 -139 57 -110 175 -189 351 -233 81 -20 111 -23 295 -21
113 1 216 6 230 11 22 8 26 20 45 126 16 84 18 116 10 116 -7 0 -36 -5 -66
-10 -86 -16 -277 -14 -328 5 -257 91 -168 411 136 490 108 28 247 14 343 -35
l40 -20 4 22 c10 44 36 195 36 206 0 6 -30 21 -67 33 -57 19 -95 23 -228 25
-88 1 -173 0 -190 -3z"/>
<path d="M6585 1865 c-328 -61 -575 -361 -575 -700 0 -257 140 -441 368 -486
77 -14 224 -7 302 17 198 58 356 205 437 404 25 63 53 190 53 241 0 29 1 29
55 29 40 0 57 -4 61 -15 3 -8 -27 -158 -68 -335 l-74 -320 66 0 67 0 32 153
c17 83 34 166 37 184 5 24 38 63 133 156 145 142 203 187 241 187 67 0 64 -32
-21 -327 -84 -287 -88 -338 -28 -369 66 -34 155 11 225 111 l38 56 24 -51 c91
-191 398 -159 541 57 56 84 34 100 -34 25 -147 -163 -372 -139 -400 43 -3 25
-3 59 0 75 7 32 -3 29 152 49 168 21 309 91 360 178 35 61 39 146 7 190 -61
84 -194 96 -331 28 -179 -89 -323 -305 -323 -485 0 -47 -5 -64 -29 -97 -32
-45 -77 -83 -97 -83 -20 0 -33 31 -27 65 3 17 32 127 65 245 32 118 62 247 65
286 5 68 5 71 -22 92 -81 64 -234 -22 -440 -246 l-76 -83 7 38 c4 21 22 99 40
173 18 74 31 136 30 138 -2 1 -23 -5 -47 -14 -49 -17 -222 -65 -224 -61 0 1
-8 40 -17 86 -22 109 -59 183 -125 249 -60 60 -130 96 -230 117 -81 17 -125
17 -218 0z m201 -70 c134 -65 213 -236 200 -430 -17 -261 -123 -473 -287 -577
-79 -50 -225 -61 -304 -23 -96 46 -173 164 -195 298 -33 192 53 471 192 622
126 138 261 175 394 110z m1649 -351 c22 -9 45 -57 45 -97 0 -45 -44 -129 -88
-168 -61 -54 -207 -108 -294 -109 -25 0 27 124 90 216 87 128 176 185 247 158z"/>
<path d="M5625 1858 c-2 -7 -20 -105 -40 -218 -20 -113 -56 -315 -81 -449 -24
-134 -44 -250 -44 -258 0 -10 35 -13 170 -13 94 0 170 3 170 8 0 4 11 70 24
147 14 77 43 248 66 380 23 132 48 276 55 319 8 44 12 83 9 88 -3 4 -77 8
-165 8 -119 0 -161 -3 -164 -12z"/>
<path d="M3663 1836 c-169 -79 -26 -215 173 -165 55 14 114 66 114 101 0 28
-32 62 -73 77 -52 20 -157 13 -214 -13z"/>
<path d="M4273 1783 l-161 -36 -7 -46 c-13 -95 -10 -91 -81 -91 -71 0 -63 9
-82 -92 l-10 -48 65 0 65 0 -6 -27 c-3 -16 -24 -129 -47 -253 -22 -124 -43
-235 -46 -247 l-5 -23 170 0 171 0 10 53 c6 28 26 140 46 247 19 107 38 207
41 223 6 27 6 27 89 27 l83 0 12 53 c6 28 14 60 17 70 4 15 -5 17 -81 17 -47
0 -86 3 -86 8 0 4 7 42 15 85 18 96 19 117 3 116 -7 0 -86 -17 -175 -36z"/>
<path d="M1824 1609 c-44 -5 -104 -12 -134 -16 l-54 -8 -33 -84 c-18 -47 -31
-86 -29 -88 2 -2 55 6 117 18 82 16 152 23 247 23 127 1 135 0 152 -21 11 -14
16 -32 13 -44 -12 -43 -51 -54 -315 -84 -76 -9 -160 -22 -187 -31 -117 -34
-198 -124 -187 -208 6 -53 71 -119 135 -137 59 -18 230 -17 301 0 30 8 84 27
119 42 35 16 65 29 67 29 2 0 4 -18 4 -40 l0 -40 175 0 c96 0 175 3 175 6 0 3
-7 12 -15 20 -21 22 -19 47 20 268 44 250 45 284 5 330 -51 58 -99 69 -310 72
-102 1 -221 -2 -266 -7z m246 -396 c0 -10 -9 -37 -19 -60 -25 -53 -81 -84
-166 -90 -76 -5 -109 10 -113 54 -4 44 21 58 159 87 145 30 139 29 139 9z"/>
<path d="M4860 1609 c-47 -5 -112 -12 -144 -16 l-59 -8 -32 -87 c-18 -49 -30
-88 -26 -88 4 0 58 10 121 22 77 14 157 22 242 22 119 1 129 0 150 -21 18 -19
20 -27 13 -49 -14 -38 -62 -52 -235 -70 -80 -8 -175 -21 -213 -29 -213 -44
-306 -194 -190 -307 50 -49 80 -59 193 -65 114 -6 213 12 308 57 35 16 66 30
68 30 2 0 4 -18 4 -40 l0 -40 175 0 c110 0 175 4 175 10 0 6 -4 10 -9 10 -24
0 -20 61 19 289 43 243 43 247 25 284 -37 78 -136 107 -355 106 -80 -1 -183
-6 -230 -10z m227 -416 c-13 -78 -78 -124 -184 -131 -47 -3 -69 0 -89 12 -32
22 -29 61 6 87 19 15 166 52 264 68 5 0 6 -16 3 -36z"/>
<path d="M3030 1596 c-71 -21 -122 -44 -164 -78 -30 -24 -37 -27 -33 -12 3 11
9 36 13 57 l6 37 -145 0 c-130 0 -146 -2 -151 -17 -7 -26 -156 -871 -156 -888
0 -13 27 -15 163 -15 l163 0 23 133 c33 193 29 182 55 159 53 -49 85 -57 216
-57 120 0 128 1 193 32 89 42 169 119 209 201 26 52 32 79 36 148 6 118 -9
166 -73 231 -39 38 -66 55 -105 67 -63 19 -186 20 -250 2z m66 -190 c30 -30
34 -40 34 -85 0 -83 -39 -154 -102 -187 -59 -31 -173 -10 -198 35 -13 25 -13
105 0 152 19 67 95 118 179 119 47 0 57 -4 87 -34z"/>
<path d="M3561 1548 c-11 -53 -111 -617 -111 -624 0 -2 75 -4 168 -4 l167 0
49 278 c26 152 54 305 61 340 l13 62 -169 0 -168 0 -10 -52z"/>
<path d="M5723 802 c-254 -173 -386 -257 -723 -465 -124 -76 -236 -146 -249
-154 -15 -9 -20 -18 -14 -24 7 -7 105 40 274 130 239 126 947 509 994 537 18
12 18 14 -8 70 -14 32 -30 59 -34 60 -4 1 -112 -68 -240 -154z"/>
</g>
</svg>
