<?xml version="1.0" standalone="no"?>
<!DOCTYPE svg PUBLIC "-//W3C//DTD SVG 20010904//EN"
 "http://www.w3.org/TR/2001/REC-SVG-20010904/DTD/svg10.dtd">
<svg version="1.0" xmlns="http://www.w3.org/2000/svg"
 width="360.000000pt" height="360.000000pt" viewBox="0 0 360.000000 360.000000"
 preserveAspectRatio="xMidYMid meet">

<g transform="translate(0.000000,360.000000) scale(0.100000,-0.100000)"
fill="#000000" stroke="none">
<path d="M146 2895 c-47 -16 -91 -57 -117 -107 -18 -36 -19 -72 -19 -993 0
-840 2 -960 15 -993 20 -47 50 -78 100 -105 l40 -22 1610 -3 c1132 -2 1625 0
1661 8 60 13 117 56 144 111 19 37 20 63 20 999 0 783 -2 967 -13 993 -19 44
-87 103 -134 116 -26 8 -544 11 -1653 11 -1345 -1 -1621 -3 -1654 -15z m3289
-26 c55 -16 92 -44 115 -89 20 -38 20 -63 20 -986 0 -942 0 -948 -21 -991 -14
-29 -35 -52 -63 -68 l-43 -25 -1637 0 c-1390 0 -1641 2 -1664 14 -36 19 -78
65 -91 99 -8 19 -11 329 -11 969 0 932 0 942 21 984 20 43 64 78 117 94 44 13
3209 12 3257 -1z"/>
<path d="M981 2655 c-320 -84 -571 -338 -652 -660 -30 -117 -33 -304 -6 -415
44 -186 127 -331 267 -463 185 -176 401 -256 655 -244 235 11 426 95 593 260
l64 62 -94 3 -93 3 -27 39 c-16 21 -28 42 -28 47 0 4 69 7 154 5 l154 -3 26
45 c14 24 26 47 26 50 0 3 -95 6 -210 6 l-211 0 -19 46 c-11 25 -20 47 -20 50
0 2 113 5 252 6 l252 3 9 38 9 37 33 -29 c38 -33 95 -46 155 -36 59 10 52 31
-9 27 -103 -8 -169 57 -178 172 -7 76 10 153 44 202 13 20 22 38 21 40 -10 10
-69 -62 -78 -96 -6 -24 -18 -41 -30 -45 -28 -9 -35 -26 -54 -130 -9 -49 -19
-100 -22 -112 -4 -20 -11 -23 -55 -23 -43 0 -50 2 -45 18 3 9 17 92 32 185
l27 167 43 0 c39 0 44 -3 44 -22 l0 -22 15 21 c8 12 28 24 44 28 23 5 27 10
23 30 l-4 25 -274 0 c-213 0 -274 3 -274 13 0 6 4 28 10 47 l10 35 251 -3
c201 -2 250 0 247 10 -3 7 -11 30 -19 51 l-13 37 -213 0 -213 0 25 50 25 50
161 0 160 0 -32 45 -32 44 -93 3 -94 3 46 47 45 47 -58 46 c-68 54 -232 137
-318 160 -39 11 -113 18 -210 21 -136 4 -159 2 -244 -21z m-370 -792 l1 -138
45 138 45 137 80 0 c71 0 79 -2 74 -17 -3 -10 -19 -103 -36 -208 -17 -104 -33
-200 -36 -212 -4 -20 -11 -23 -55 -23 -43 0 -50 2 -45 18 9 30 48 293 45 297
-2 2 -29 -68 -59 -156 l-54 -159 -38 0 -38 0 0 162 c0 89 -2 159 -5 157 -2 -3
-14 -63 -25 -134 -32 -202 -25 -185 -76 -185 -24 0 -44 3 -44 8 0 4 17 107 37
230 l37 222 73 0 73 0 1 -137z m919 77 c0 -23 4 -30 20 -30 14 0 20 -7 20 -22
0 -46 -12 -68 -35 -68 -21 0 -24 -8 -39 -87 -17 -93 -11 -119 27 -109 18 4 19
1 13 -37 -4 -23 -9 -43 -11 -45 -2 -2 -22 -6 -44 -9 -48 -7 -87 15 -97 52 -3
14 7 107 22 205 l29 180 48 0 c46 0 47 -1 47 -30z m-457 -31 c61 -31 68 -78
38 -259 l-17 -105 -42 -3 c-31 -2 -42 1 -42 11 0 12 -8 11 -40 -5 -103 -51
-187 45 -132 151 26 53 60 72 136 78 67 6 82 18 51 43 -11 9 -37 11 -85 8
l-70 -5 6 36 c4 20 9 39 13 43 18 18 151 24 184 7z m309 -14 c-9 -64 -10 -65
-61 -65 -32 0 -53 -5 -62 -16 -15 -18 -2 -32 60 -66 17 -9 36 -30 42 -45 14
-37 3 -105 -21 -131 -33 -35 -115 -51 -189 -36 -30 6 -32 9 -29 47 l3 41 70 1
c63 0 70 2 73 20 2 15 -8 27 -36 42 -21 12 -46 31 -55 41 -27 29 -32 83 -12
125 23 50 65 68 150 64 64 -2 70 -4 67 -22z m445 -7 c29 -29 41 -82 33 -148
l-5 -45 -97 -3 c-89 -2 -98 -5 -98 -22 0 -42 89 -65 156 -40 l27 11 -7 -47
c-3 -26 -8 -49 -10 -51 -2 -2 -32 -6 -68 -10 -134 -12 -207 58 -195 190 7 73
42 144 88 175 48 33 138 28 176 -10z"/>
<path d="M950 1697 c-33 -17 -41 -72 -11 -82 38 -12 81 31 81 81 0 17 -36 18
-70 1z"/>
<path d="M1690 1820 c-35 -35 -26 -50 30 -50 46 0 50 2 50 25 0 23 -24 45 -49
45 -6 0 -20 -9 -31 -20z"/>
<path d="M3107 1963 c-12 -19 -11 -77 1 -80 7 -3 12 4 12 19 0 13 3 33 6 46 6
21 -9 32 -19 15z"/>
<path d="M2251 1893 c-22 -18 -21 -18 26 -18 26 0 58 -4 71 -8 18 -7 22 -5 22
11 0 34 -83 44 -119 15z"/>
<path d="M2408 1870 c-4 -8 -9 -30 -12 -48 -5 -31 -5 -32 22 -25 47 12 125 9
129 -4 8 -23 35 -15 31 10 -3 21 -8 22 -80 22 l-77 0 -4 30 c-2 19 -5 25 -9
15z"/>
<path d="M2681 1729 c-12 -83 -25 -167 -28 -186 l-6 -34 48 3 c61 4 75 28 16
28 -39 0 -40 1 -36 28 15 81 45 279 45 295 0 9 -3 17 -8 17 -4 0 -18 -68 -31
-151z"/>
<path d="M2890 1841 c0 -6 -15 -21 -34 -32 -40 -23 -58 -54 -26 -44 19 6 20 4
13 -22 -12 -48 -7 -136 11 -170 32 -62 107 -84 161 -49 22 14 25 15 25 1 0
-11 11 -15 45 -15 33 0 45 4 45 15 0 10 -10 15 -30 15 -19 0 -30 5 -30 14 0
10 -10 9 -41 -7 -38 -19 -45 -19 -83 -6 -78 27 -108 140 -66 251 11 28 17 54
15 57 -3 2 -5 -1 -5 -8z"/>
<path d="M3013 1818 c-13 -6 -23 -15 -23 -20 0 -5 5 -6 10 -3 39 24 76 -43 60
-110 -12 -53 -6 -55 14 -5 22 55 21 105 -4 130 -23 23 -26 23 -57 8z"/>
<path d="M2498 1699 c-38 -14 -35 -27 5 -25 29 1 32 -2 29 -24 -3 -22 -2 -23
11 -10 9 8 17 26 19 40 4 29 -19 35 -64 19z"/>
<path d="M2361 1686 c-6 -7 -13 -39 -15 -70 -3 -44 0 -61 15 -81 28 -35 79
-42 129 -17 31 15 40 16 40 6 0 -10 13 -14 40 -14 29 0 40 4 40 15 0 9 -9 15
-25 15 -15 0 -25 6 -25 14 0 11 -8 10 -37 -5 -54 -28 -89 -24 -125 11 -27 28
-30 35 -26 85 1 30 2 55 2 55 -1 0 -7 -6 -13 -14z"/>
</g>
</svg>
