<?xml version="1.0" standalone="no"?>
<!DOCTYPE svg PUBLIC "-//W3C//DTD SVG 20010904//EN"
 "http://www.w3.org/TR/2001/REC-SVG-20010904/DTD/svg10.dtd">
<svg version="1.0" xmlns="http://www.w3.org/2000/svg"
 width="1280.000000pt" height="399.000000pt" viewBox="0 0 1280.000000 399.000000"
 preserveAspectRatio="xMidYMid meet">

<g transform="translate(0.000000,399.000000) scale(0.100000,-0.100000)"
fill="#000000" stroke="none">
<path d="M0 1995 l0 -1995 6400 0 6400 0 0 1995 0 1995 -6400 0 -6400 0 0
-1995z m7579 1154 c138 -13 277 -47 357 -87 169 -85 291 -226 355 -409 48
-138 51 -196 56 -910 l4 -673 -284 0 -285 0 5 117 6 117 -63 -67 c-114 -122
-245 -192 -416 -222 -232 -40 -469 4 -645 120 -113 76 -189 176 -236 312 -23
67 -27 94 -27 193 0 99 4 126 27 193 90 261 318 410 737 483 64 10 181 18 355
21 143 3 263 8 267 12 4 3 2 33 -5 67 -14 64 -50 135 -89 171 -40 37 -138 92
-197 109 -80 24 -218 22 -301 -5 -79 -25 -207 -102 -275 -165 l-49 -46 -174
172 -173 173 38 33 c99 87 303 195 447 237 193 55 370 73 565 54z m-2420 -726
c139 -379 257 -692 263 -698 6 -6 11 -6 16 2 4 7 115 321 247 698 l240 685
317 0 318 0 -15 -37 c-8 -21 -188 -481 -399 -1023 l-384 -985 -334 -3 -333 -2
-428 1017 c-235 560 -427 1021 -427 1026 0 4 150 7 333 7 l332 0 254 -687z"/>
<path d="M7445 1943 c-199 -26 -283 -54 -354 -119 -151 -136 -108 -320 89
-378 154 -46 412 20 507 128 66 76 87 137 91 264 l4 112 -153 -1 c-85 -1 -167
-4 -184 -6z"/>
</g>
</svg>
